<ttFont>
<head>
    <!-- Most of this table will be recalculated by the compiler -->
    <tableVersion value="1.0"/>
    <fontRevision value="1.0"/>
    <checkSumAdjustment value="0xbc7ad5b9"/>
    <magicNumber value="0x5f0f3cf5"/>
    <flags value="00000000 00000000"/>
    <unitsPerEm value="1050"/>
    <created value="Sat Aug 21 19:24:44 1999"/>
    <modified value="Tue Nov  2 20:11:30 2004"/>
    <xMin value="0"/>
    <yMin value="-125"/>
    <xMax value="875"/>
    <yMax value="750"/>
    <macStyle value="00000000 00000001"/>
    <lowestRecPPEM value="11"/>
    <fontDirectionHint value="2"/>
    <indexToLocFormat value="0"/>
    <glyphDataFormat value="0"/>
  </head>
    <TTGlyph name="A" xMin="125" yMin="0" xMax="750" yMax="625">
      <contour>
        <pt x="625" y="500" on="1"/>
        <pt x="750" y="500" on="1"/>
        <pt x="750" y="0" on="1"/>
        <pt x="500" y="0" on="1"/>
        <pt x="500" y="250" on="1"/>
        <pt x="375" y="250" on="1"/>
        <pt x="375" y="0" on="1"/>
        <pt x="125" y="0" on="1"/>
        <pt x="125" y="500" on="1"/>
        <pt x="250" y="500" on="1"/>
        <pt x="250" y="625" on="1"/>
        <pt x="625" y="625" on="1"/>
      </contour>
      <contour>
        <pt x="375" y="375" on="1"/>
        <pt x="500" y="375" on="1"/>
        <pt x="500" y="500" on="1"/>
        <pt x="375" y="500" on="1"/>
      </contour>
    </TTGlyph>
    <TTGlyph name="B" xMin="125" yMin="0" xMax="750" yMax="625">
      <contour>
        <pt x="125" y="0" on="1"/>
        <pt x="125" y="625" on="1"/>
        <pt x="625" y="625" on="1"/>
        <pt x="625" y="500" on="1"/>
        <pt x="750" y="500" on="1"/>
        <pt x="750" y="375" on="1"/>
        <pt x="625" y="375" on="1"/>
        <pt x="625" y="250" on="1"/>
        <pt x="750" y="250" on="1"/>
        <pt x="750" y="125" on="1"/>
        <pt x="625" y="125" on="1"/>
        <pt x="625" y="0" on="1"/>
      </contour>
      <contour>
        <pt x="375" y="375" on="1"/>
        <pt x="500" y="375" on="1"/>
        <pt x="500" y="500" on="1"/>
        <pt x="375" y="500" on="1"/>
      </contour>
      <contour>
        <pt x="375" y="125" on="1"/>
        <pt x="500" y="125" on="1"/>
        <pt x="500" y="250" on="1"/>
        <pt x="375" y="250" on="1"/>
      </contour>
    </TTGlyph>
    <TTGlyph name="C" xMin="125" yMin="0" xMax="750" yMax="625">
      <contour>
        <pt x="250" y="0" on="1"/>
        <pt x="250" y="125" on="1"/>
        <pt x="125" y="125" on="1"/>
        <pt x="125" y="500" on="1"/>
        <pt x="250" y="500" on="1"/>
        <pt x="250" y="625" on="1"/>
        <pt x="625" y="625" on="1"/>
        <pt x="625" y="500" on="1"/>
        <pt x="750" y="500" on="1"/>
        <pt x="750" y="375" on="1"/>
        <pt x="500" y="375" on="1"/>
        <pt x="500" y="500" on="1"/>
        <pt x="375" y="500" on="1"/>
        <pt x="375" y="125" on="1"/>
        <pt x="500" y="125" on="1"/>
        <pt x="500" y="250" on="1"/>
        <pt x="750" y="250" on="1"/>
        <pt x="750" y="125" on="1"/>
        <pt x="625" y="125" on="1"/>
        <pt x="625" y="0" on="1"/>
      </contour>
    </TTGlyph>
    <TTGlyph name="D" xMin="125" yMin="0" xMax="750" yMax="625">
      <contour>
        <pt x="125" y="0" on="1"/>
        <pt x="125" y="625" on="1"/>
        <pt x="625" y="625" on="1"/>
        <pt x="625" y="500" on="1"/>
        <pt x="750" y="500" on="1"/>
        <pt x="750" y="125" on="1"/>
        <pt x="625" y="125" on="1"/>
        <pt x="625" y="0" on="1"/>
      </contour>
      <contour>
        <pt x="500" y="500" on="1"/>
        <pt x="375" y="500" on="1"/>
        <pt x="375" y="125" on="1"/>
        <pt x="500" y="125" on="1"/>
      </contour>
    </TTGlyph>
    <TTGlyph name="E" xMin="125" yMin="0" xMax="625" yMax="625">
      <contour>
        <pt x="625" y="500" on="1"/>
        <pt x="375" y="500" on="1"/>
        <pt x="375" y="375" on="1"/>
        <pt x="625" y="375" on="1"/>
        <pt x="625" y="250" on="1"/>
        <pt x="375" y="250" on="1"/>
        <pt x="375" y="125" on="1"/>
        <pt x="625" y="125" on="1"/>
        <pt x="625" y="0" on="1"/>
        <pt x="125" y="0" on="1"/>
        <pt x="125" y="625" on="1"/>
        <pt x="625" y="625" on="1"/>
      </contour>
    </TTGlyph>
    <TTGlyph name="F" xMin="125" yMin="0" xMax="625" yMax="625">
      <contour>
        <pt x="125" y="0" on="1"/>
        <pt x="125" y="625" on="1"/>
        <pt x="625" y="625" on="1"/>
        <pt x="625" y="500" on="1"/>
        <pt x="375" y="500" on="1"/>
        <pt x="375" y="375" on="1"/>
        <pt x="625" y="375" on="1"/>
        <pt x="625" y="250" on="1"/>
        <pt x="375" y="250" on="1"/>
        <pt x="375" y="0" on="1"/>
      </contour>
    </TTGlyph>
    <TTGlyph name="G" xMin="125" yMin="0" xMax="750" yMax="625">
      <contour>
        <pt x="250" y="0" on="1"/>
        <pt x="250" y="125" on="1"/>
        <pt x="125" y="125" on="1"/>
        <pt x="125" y="500" on="1"/>
        <pt x="250" y="500" on="1"/>
        <pt x="250" y="625" on="1"/>
        <pt x="750" y="625" on="1"/>
        <pt x="750" y="500" on="1"/>
        <pt x="375" y="500" on="1"/>
        <pt x="375" y="125" on="1"/>
        <pt x="500" y="125" on="1"/>
        <pt x="500" y="375" on="1"/>
        <pt x="750" y="375" on="1"/>
        <pt x="750" y="125" on="1"/>
        <pt x="625" y="125" on="1"/>
        <pt x="625" y="0" on="1"/>
      </contour>
    </TTGlyph>
    <TTGlyph name="H" xMin="125" yMin="0" xMax="750" yMax="625">
      <contour>
        <pt x="125" y="0" on="1"/>
        <pt x="125" y="625" on="1"/>
        <pt x="375" y="625" on="1"/>
        <pt x="375" y="375" on="1"/>
        <pt x="500" y="375" on="1"/>
        <pt x="500" y="625" on="1"/>
        <pt x="750" y="625" on="1"/>
        <pt x="750" y="0" on="1"/>
        <pt x="500" y="0" on="1"/>
        <pt x="500" y="250" on="1"/>
        <pt x="375" y="250" on="1"/>
        <pt x="375" y="0" on="1"/>
      </contour>
    </TTGlyph>
    <TTGlyph name="I" xMin="125" yMin="0" xMax="375" yMax="625">
      <contour>
        <pt x="125" y="0" on="1"/>
        <pt x="125" y="625" on="1"/>
        <pt x="375" y="625" on="1"/>
        <pt x="375" y="0" on="1"/>
      </contour>
    </TTGlyph>
    <TTGlyph name="J" xMin="125" yMin="0" xMax="750" yMax="625">
      <contour>
        <pt x="250" y="0" on="1"/>
        <pt x="250" y="125" on="1"/>
        <pt x="125" y="125" on="1"/>
        <pt x="125" y="250" on="1"/>
        <pt x="375" y="250" on="1"/>
        <pt x="375" y="125" on="1"/>
        <pt x="500" y="125" on="1"/>
        <pt x="500" y="625" on="1"/>
        <pt x="750" y="625" on="1"/>
        <pt x="750" y="125" on="1"/>
        <pt x="625" y="125" on="1"/>
        <pt x="625" y="0" on="1"/>
      </contour>
    </TTGlyph>
    <TTGlyph name="K" xMin="125" yMin="0" xMax="750" yMax="625">
      <contour>
        <pt x="125" y="0" on="1"/>
        <pt x="125" y="625" on="1"/>
        <pt x="375" y="625" on="1"/>
        <pt x="375" y="500" on="1"/>
        <pt x="500" y="500" on="1"/>
        <pt x="500" y="625" on="1"/>
        <pt x="750" y="625" on="1"/>
        <pt x="750" y="500" on="1"/>
        <pt x="625" y="500" on="1"/>
        <pt x="625" y="375" on="1"/>
        <pt x="500" y="375" on="1"/>
        <pt x="500" y="250" on="1"/>
        <pt x="625" y="250" on="1"/>
        <pt x="625" y="125" on="1"/>
        <pt x="750" y="125" on="1"/>
        <pt x="750" y="0" on="1"/>
        <pt x="500" y="0" on="1"/>
        <pt x="500" y="125" on="1"/>
        <pt x="375" y="125" on="1"/>
        <pt x="375" y="0" on="1"/>
      </contour>
    </TTGlyph>
    <TTGlyph name="L" xMin="125" yMin="0" xMax="625" yMax="625">
      <contour>
        <pt x="375" y="125" on="1"/>
        <pt x="625" y="125" on="1"/>
        <pt x="625" y="0" on="1"/>
        <pt x="125" y="0" on="1"/>
        <pt x="125" y="625" on="1"/>
        <pt x="375" y="625" on="1"/>
      </contour>
    </TTGlyph>
    <TTGlyph name="M" xMin="125" yMin="0" xMax="875" yMax="625">
      <contour>
        <pt x="125" y="0" on="1"/>
        <pt x="125" y="625" on="1"/>
        <pt x="375" y="625" on="1"/>
        <pt x="375" y="500" on="1"/>
        <pt x="625" y="500" on="1"/>
        <pt x="625" y="625" on="1"/>
        <pt x="875" y="625" on="1"/>
        <pt x="875" y="0" on="1"/>
        <pt x="625" y="0" on="1"/>
        <pt x="625" y="250" on="1"/>
        <pt x="375" y="250" on="1"/>
        <pt x="375" y="0" on="1"/>
      </contour>
    </TTGlyph>
    <TTGlyph name="N" xMin="125" yMin="0" xMax="875" yMax="625">
      <contour>
        <pt x="125" y="0" on="1"/>
        <pt x="125" y="625" on="1"/>
        <pt x="375" y="625" on="1"/>
        <pt x="375" y="500" on="1"/>
        <pt x="500" y="500" on="1"/>
        <pt x="500" y="375" on="1"/>
        <pt x="625" y="375" on="1"/>
        <pt x="625" y="625" on="1"/>
        <pt x="875" y="625" on="1"/>
        <pt x="875" y="0" on="1"/>
        <pt x="625" y="0" on="1"/>
        <pt x="625" y="125" on="1"/>
        <pt x="500" y="125" on="1"/>
        <pt x="500" y="250" on="1"/>
        <pt x="375" y="250" on="1"/>
        <pt x="375" y="0" on="1"/>
      </contour>
    </TTGlyph>
    <TTGlyph name="O" xMin="125" yMin="0" xMax="750" yMax="625">
      <contour>
        <pt x="250" y="0" on="1"/>
        <pt x="250" y="125" on="1"/>
        <pt x="125" y="125" on="1"/>
        <pt x="125" y="500" on="1"/>
        <pt x="250" y="500" on="1"/>
        <pt x="250" y="625" on="1"/>
        <pt x="625" y="625" on="1"/>
        <pt x="625" y="500" on="1"/>
        <pt x="750" y="500" on="1"/>
        <pt x="750" y="125" on="1"/>
        <pt x="625" y="125" on="1"/>
        <pt x="625" y="0" on="1"/>
      </contour>
      <contour>
        <pt x="375" y="125" on="1"/>
        <pt x="500" y="125" on="1"/>
        <pt x="500" y="500" on="1"/>
        <pt x="375" y="500" on="1"/>
      </contour>
    </TTGlyph>
    <TTGlyph name="P" xMin="125" yMin="0" xMax="750" yMax="625">
      <contour>
        <pt x="125" y="0" on="1"/>
        <pt x="125" y="625" on="1"/>
        <pt x="625" y="625" on="1"/>
        <pt x="625" y="500" on="1"/>
        <pt x="750" y="500" on="1"/>
        <pt x="750" y="375" on="1"/>
        <pt x="625" y="375" on="1"/>
        <pt x="625" y="250" on="1"/>
        <pt x="375" y="250" on="1"/>
        <pt x="375" y="0" on="1"/>
      </contour>
      <contour>
        <pt x="375" y="375" on="1"/>
        <pt x="500" y="375" on="1"/>
        <pt x="500" y="500" on="1"/>
        <pt x="375" y="500" on="1"/>
      </contour>
    </TTGlyph>
    <TTGlyph name="Q" xMin="125" yMin="-125" xMax="750" yMax="625">
      <contour>
        <pt x="250" y="0" on="1"/>
        <pt x="250" y="125" on="1"/>
        <pt x="125" y="125" on="1"/>
        <pt x="125" y="500" on="1"/>
        <pt x="250" y="500" on="1"/>
        <pt x="250" y="625" on="1"/>
        <pt x="625" y="625" on="1"/>
        <pt x="625" y="500" on="1"/>
        <pt x="750" y="500" on="1"/>
        <pt x="750" y="125" on="1"/>
        <pt x="625" y="125" on="1"/>
        <pt x="625" y="0" on="1"/>
        <pt x="750" y="0" on="1"/>
        <pt x="750" y="-125" on="1"/>
        <pt x="500" y="-125" on="1"/>
        <pt x="500" y="0" on="1"/>
      </contour>
      <contour>
        <pt x="375" y="125" on="1"/>
        <pt x="500" y="125" on="1"/>
        <pt x="500" y="500" on="1"/>
        <pt x="375" y="500" on="1"/>
      </contour>
    </TTGlyph>
    <TTGlyph name="R" xMin="125" yMin="0" xMax="750" yMax="625">
      <contour>
        <pt x="125" y="0" on="1"/>
        <pt x="125" y="625" on="1"/>
        <pt x="625" y="625" on="1"/>
        <pt x="625" y="500" on="1"/>
        <pt x="750" y="500" on="1"/>
        <pt x="750" y="375" on="1"/>
        <pt x="625" y="375" on="1"/>
        <pt x="625" y="125" on="1"/>
        <pt x="750" y="125" on="1"/>
        <pt x="750" y="0" on="1"/>
        <pt x="500" y="0" on="1"/>
        <pt x="500" y="125" on="1"/>
        <pt x="375" y="125" on="1"/>
        <pt x="375" y="0" on="1"/>
      </contour>
      <contour>
        <pt x="375" y="375" on="1"/>
        <pt x="500" y="375" on="1"/>
        <pt x="500" y="500" on="1"/>
        <pt x="375" y="500" on="1"/>
      </contour>
    </TTGlyph>
    <TTGlyph name="S" xMin="125" yMin="0" xMax="750" yMax="625">
      <contour>
        <pt x="125" y="0" on="1"/>
        <pt x="125" y="125" on="1"/>
        <pt x="500" y="125" on="1"/>
        <pt x="500" y="250" on="1"/>
        <pt x="250" y="250" on="1"/>
        <pt x="250" y="375" on="1"/>
        <pt x="125" y="375" on="1"/>
        <pt x="125" y="500" on="1"/>
        <pt x="250" y="500" on="1"/>
        <pt x="250" y="625" on="1"/>
        <pt x="750" y="625" on="1"/>
        <pt x="750" y="500" on="1"/>
        <pt x="375" y="500" on="1"/>
        <pt x="375" y="375" on="1"/>
        <pt x="625" y="375" on="1"/>
        <pt x="625" y="250" on="1"/>
        <pt x="750" y="250" on="1"/>
        <pt x="750" y="125" on="1"/>
        <pt x="625" y="125" on="1"/>
        <pt x="625" y="0" on="1"/>
      </contour>
    </TTGlyph>
    <TTGlyph name="T" xMin="125" yMin="0" xMax="625" yMax="625">
      <contour>
        <pt x="250" y="0" on="1"/>
        <pt x="250" y="500" on="1"/>
        <pt x="125" y="500" on="1"/>
        <pt x="125" y="625" on="1"/>
        <pt x="625" y="625" on="1"/>
        <pt x="625" y="500" on="1"/>
        <pt x="500" y="500" on="1"/>
        <pt x="500" y="0" on="1"/>
      </contour>
    </TTGlyph>
    <TTGlyph name="U" xMin="125" yMin="0" xMax="750" yMax="625">
      <contour>
        <pt x="250" y="0" on="1"/>
        <pt x="250" y="125" on="1"/>
        <pt x="125" y="125" on="1"/>
        <pt x="125" y="625" on="1"/>
        <pt x="375" y="625" on="1"/>
        <pt x="375" y="125" on="1"/>
        <pt x="500" y="125" on="1"/>
        <pt x="500" y="625" on="1"/>
        <pt x="750" y="625" on="1"/>
        <pt x="750" y="125" on="1"/>
        <pt x="625" y="125" on="1"/>
        <pt x="625" y="0" on="1"/>
      </contour>
    </TTGlyph>
    <TTGlyph name="V" xMin="125" yMin="0" xMax="875" yMax="625">
      <contour>
        <pt x="375" y="0" on="1"/>
        <pt x="375" y="125" on="1"/>
        <pt x="250" y="125" on="1"/>
        <pt x="250" y="375" on="1"/>
        <pt x="125" y="375" on="1"/>
        <pt x="125" y="625" on="1"/>
        <pt x="375" y="625" on="1"/>
        <pt x="375" y="375" on="1"/>
        <pt x="625" y="375" on="1"/>
        <pt x="625" y="625" on="1"/>
        <pt x="875" y="625" on="1"/>
        <pt x="875" y="375" on="1"/>
        <pt x="750" y="375" on="1"/>
        <pt x="750" y="125" on="1"/>
        <pt x="625" y="125" on="1"/>
        <pt x="625" y="0" on="1"/>
      </contour>
    </TTGlyph>
    <TTGlyph name="W" xMin="125" yMin="0" xMax="875" yMax="625">
      <contour>
        <pt x="250" y="0" on="1"/>
        <pt x="250" y="125" on="1"/>
        <pt x="125" y="125" on="1"/>
        <pt x="125" y="625" on="1"/>
        <pt x="375" y="625" on="1"/>
        <pt x="375" y="500" on="1"/>
        <pt x="625" y="500" on="1"/>
        <pt x="625" y="625" on="1"/>
        <pt x="875" y="625" on="1"/>
        <pt x="875" y="125" on="1"/>
        <pt x="750" y="125" on="1"/>
        <pt x="750" y="0" on="1"/>
      </contour>
    </TTGlyph>
    <TTGlyph name="X" xMin="125" yMin="0" xMax="875" yMax="625">
      <contour>
        <pt x="125" y="0" on="1"/>
        <pt x="125" y="125" on="1"/>
        <pt x="250" y="125" on="1"/>
        <pt x="250" y="250" on="1"/>
        <pt x="375" y="250" on="1"/>
        <pt x="375" y="375" on="1"/>
        <pt x="250" y="375" on="1"/>
        <pt x="250" y="500" on="1"/>
        <pt x="125" y="500" on="1"/>
        <pt x="125" y="625" on="1"/>
        <pt x="375" y="625" on="1"/>
        <pt x="375" y="500" on="1"/>
        <pt x="625" y="500" on="1"/>
        <pt x="625" y="625" on="1"/>
        <pt x="875" y="625" on="1"/>
        <pt x="875" y="500" on="1"/>
        <pt x="750" y="500" on="1"/>
        <pt x="750" y="375" on="1"/>
        <pt x="625" y="375" on="1"/>
        <pt x="625" y="250" on="1"/>
        <pt x="750" y="250" on="1"/>
        <pt x="750" y="125" on="1"/>
        <pt x="875" y="125" on="1"/>
        <pt x="875" y="0" on="1"/>
        <pt x="625" y="0" on="1"/>
        <pt x="625" y="125" on="1"/>
        <pt x="375" y="125" on="1"/>
        <pt x="375" y="0" on="1"/>
      </contour>
    </TTGlyph>
    <TTGlyph name="Y" xMin="125" yMin="0" xMax="875" yMax="625">
      <contour>
        <pt x="375" y="0" on="1"/>
        <pt x="375" y="375" on="1"/>
        <pt x="250" y="375" on="1"/>
        <pt x="250" y="500" on="1"/>
        <pt x="125" y="500" on="1"/>
        <pt x="125" y="625" on="1"/>
        <pt x="375" y="625" on="1"/>
        <pt x="375" y="500" on="1"/>
        <pt x="625" y="500" on="1"/>
        <pt x="625" y="625" on="1"/>
        <pt x="875" y="625" on="1"/>
        <pt x="875" y="500" on="1"/>
        <pt x="750" y="500" on="1"/>
        <pt x="750" y="375" on="1"/>
        <pt x="625" y="375" on="1"/>
        <pt x="625" y="0" on="1"/>
      </contour>
    </TTGlyph>
    <TTGlyph name="Z" xMin="125" yMin="0" xMax="625" yMax="625">
      <contour>
        <pt x="125" y="0" on="1"/>
        <pt x="125" y="250" on="1"/>
        <pt x="250" y="250" on="1"/>
        <pt x="250" y="375" on="1"/>
        <pt x="375" y="375" on="1"/>
        <pt x="375" y="500" on="1"/>
        <pt x="125" y="500" on="1"/>
        <pt x="125" y="625" on="1"/>
        <pt x="625" y="625" on="1"/>
        <pt x="625" y="375" on="1"/>
        <pt x="500" y="375" on="1"/>
        <pt x="500" y="250" on="1"/>
        <pt x="375" y="250" on="1"/>
        <pt x="375" y="125" on="1"/>
        <pt x="625" y="125" on="1"/>
        <pt x="625" y="0" on="1"/>
      </contour>
    </TTGlyph>
    <TTGlyph name="a" xMin="125" yMin="0" xMax="750" yMax="625">
      <contour>
        <pt x="625" y="500" on="1"/>
        <pt x="750" y="500" on="1"/>
        <pt x="750" y="0" on="1"/>
        <pt x="500" y="0" on="1"/>
        <pt x="500" y="250" on="1"/>
        <pt x="375" y="250" on="1"/>
        <pt x="375" y="0" on="1"/>
        <pt x="125" y="0" on="1"/>
        <pt x="125" y="500" on="1"/>
        <pt x="250" y="500" on="1"/>
        <pt x="250" y="625" on="1"/>
        <pt x="625" y="625" on="1"/>
      </contour>
      <contour>
        <pt x="375" y="375" on="1"/>
        <pt x="500" y="375" on="1"/>
        <pt x="500" y="500" on="1"/>
        <pt x="375" y="500" on="1"/>
      </contour>
    </TTGlyph>
    <TTGlyph name="ampersand" xMin="125" yMin="-125" xMax="750" yMax="750">
      <contour>
        <pt x="250" y="0" on="1"/>
        <pt x="250" y="125" on="1"/>
        <pt x="125" y="125" on="1"/>
        <pt x="125" y="250" on="1"/>
        <pt x="250" y="250" on="1"/>
        <pt x="250" y="375" on="1"/>
        <pt x="125" y="375" on="1"/>
        <pt x="125" y="500" on="1"/>
        <pt x="250" y="500" on="1"/>
        <pt x="250" y="625" on="1"/>
        <pt x="375" y="625" on="1"/>
        <pt x="375" y="750" on="1"/>
        <pt x="625" y="750" on="1"/>
        <pt x="625" y="625" on="1"/>
        <pt x="750" y="625" on="1"/>
        <pt x="750" y="500" on="1"/>
        <pt x="375" y="500" on="1"/>
        <pt x="375" y="375" on="1"/>
        <pt x="625" y="375" on="1"/>
        <pt x="625" y="250" on="1"/>
        <pt x="375" y="250" on="1"/>
        <pt x="375" y="125" on="1"/>
        <pt x="750" y="125" on="1"/>
        <pt x="750" y="0" on="1"/>
        <pt x="625" y="0" on="1"/>
        <pt x="625" y="-125" on="1"/>
        <pt x="375" y="-125" on="1"/>
        <pt x="375" y="0" on="1"/>
      </contour>
    </TTGlyph>
    <TTGlyph name="asciicircum" xMin="125" yMin="375" xMax="625" yMax="625">
      <contour>
        <pt x="125" y="375" on="1"/>
        <pt x="125" y="500" on="1"/>
        <pt x="250" y="500" on="1"/>
        <pt x="250" y="625" on="1"/>
        <pt x="500" y="625" on="1"/>
        <pt x="500" y="500" on="1"/>
        <pt x="625" y="500" on="1"/>
        <pt x="625" y="375" on="1"/>
      </contour>
    </TTGlyph>
    <TTGlyph name="asciitilde" xMin="125" yMin="375" xMax="750" yMax="625">
      <contour>
        <pt x="125" y="375" on="1"/>
        <pt x="125" y="500" on="1"/>
        <pt x="250" y="500" on="1"/>
        <pt x="250" y="625" on="1"/>
        <pt x="750" y="625" on="1"/>
        <pt x="750" y="500" on="1"/>
        <pt x="625" y="500" on="1"/>
        <pt x="625" y="375" on="1"/>
      </contour>
    </TTGlyph>
    <TTGlyph name="asterisk" xMin="125" yMin="0" xMax="875" yMax="625">
      <contour>
        <pt x="375" y="0" on="1"/>
        <pt x="375" y="125" on="1"/>
        <pt x="125" y="125" on="1"/>
        <pt x="125" y="250" on="1"/>
        <pt x="250" y="250" on="1"/>
        <pt x="250" y="375" on="1"/>
        <pt x="125" y="375" on="1"/>
        <pt x="125" y="500" on="1"/>
        <pt x="375" y="500" on="1"/>
        <pt x="375" y="625" on="1"/>
        <pt x="625" y="625" on="1"/>
        <pt x="625" y="500" on="1"/>
        <pt x="875" y="500" on="1"/>
        <pt x="875" y="375" on="1"/>
        <pt x="750" y="375" on="1"/>
        <pt x="750" y="250" on="1"/>
        <pt x="875" y="250" on="1"/>
        <pt x="875" y="125" on="1"/>
        <pt x="625" y="125" on="1"/>
        <pt x="625" y="0" on="1"/>
      </contour>
    </TTGlyph>
    <TTGlyph name="at" xMin="125" yMin="0" xMax="875" yMax="625">
      <contour>
        <pt x="250" y="0" on="1"/>
      </contour>
      <contour>
        <pt x="375" y="250" on="1"/>
        <pt x="750" y="250" on="1"/>
        <pt x="750" y="375" on="1"/>
        <pt x="875" y="375" on="1"/>
        <pt x="875" y="500" on="1"/>
        <pt x="750" y="500" on="1"/>
        <pt x="750" y="625" on="1"/>
        <pt x="250" y="625" on="1"/>
        <pt x="250" y="500" on="1"/>
        <pt x="125" y="500" on="1"/>
        <pt x="125" y="125" on="1"/>
        <pt x="250" y="125" on="1"/>
        <pt x="250" y="0" on="1"/>
        <pt x="750" y="0" on="1"/>
        <pt x="750" y="125" on="1"/>
        <pt x="375" y="125" on="1"/>
      </contour>
    </TTGlyph>
    <TTGlyph name="b" xMin="125" yMin="0" xMax="750" yMax="625">
      <contour>
        <pt x="125" y="0" on="1"/>
        <pt x="125" y="625" on="1"/>
        <pt x="625" y="625" on="1"/>
        <pt x="625" y="500" on="1"/>
        <pt x="750" y="500" on="1"/>
        <pt x="750" y="375" on="1"/>
        <pt x="625" y="375" on="1"/>
        <pt x="625" y="250" on="1"/>
        <pt x="750" y="250" on="1"/>
        <pt x="750" y="125" on="1"/>
        <pt x="625" y="125" on="1"/>
        <pt x="625" y="0" on="1"/>
      </contour>
      <contour>
        <pt x="375" y="375" on="1"/>
        <pt x="500" y="375" on="1"/>
        <pt x="500" y="500" on="1"/>
        <pt x="375" y="500" on="1"/>
      </contour>
      <contour>
        <pt x="375" y="125" on="1"/>
        <pt x="500" y="125" on="1"/>
        <pt x="500" y="250" on="1"/>
        <pt x="375" y="250" on="1"/>
      </contour>
    </TTGlyph>
    <TTGlyph name="backslash" xMin="125" yMin="0" xMax="625" yMax="625">
      <contour>
        <pt x="375" y="0" on="1"/>
        <pt x="375" y="250" on="1"/>
        <pt x="250" y="250" on="1"/>
        <pt x="250" y="375" on="1"/>
        <pt x="125" y="375" on="1"/>
        <pt x="125" y="625" on="1"/>
        <pt x="375" y="625" on="1"/>
        <pt x="375" y="375" on="1"/>
        <pt x="500" y="375" on="1"/>
        <pt x="500" y="250" on="1"/>
        <pt x="625" y="250" on="1"/>
        <pt x="625" y="0" on="1"/>
      </contour>
    </TTGlyph>
    <TTGlyph name="bar" xMin="125" yMin="-125" xMax="375" yMax="750">
      <contour>
        <pt x="125" y="-125" on="1"/>
        <pt x="125" y="750" on="1"/>
        <pt x="375" y="750" on="1"/>
        <pt x="375" y="-125" on="1"/>
      </contour>
    </TTGlyph>
    <TTGlyph name="braceleft" xMin="125" yMin="0" xMax="625" yMax="625">
      <contour>
        <pt x="250" y="0" on="1"/>
        <pt x="250" y="250" on="1"/>
        <pt x="125" y="250" on="1"/>
        <pt x="125" y="375" on="1"/>
        <pt x="250" y="375" on="1"/>
        <pt x="250" y="625" on="1"/>
        <pt x="625" y="625" on="1"/>
        <pt x="625" y="500" on="1"/>
        <pt x="500" y="500" on="1"/>
        <pt x="500" y="375" on="1"/>
        <pt x="375" y="375" on="1"/>
        <pt x="375" y="250" on="1"/>
        <pt x="500" y="250" on="1"/>
        <pt x="500" y="125" on="1"/>
        <pt x="625" y="125" on="1"/>
        <pt x="625" y="0" on="1"/>
      </contour>
    </TTGlyph>
    <TTGlyph name="braceright" xMin="125" yMin="0" xMax="625" yMax="625">
      <contour>
        <pt x="625" y="250" on="1"/>
        <pt x="500" y="250" on="1"/>
        <pt x="500" y="0" on="1"/>
        <pt x="125" y="0" on="1"/>
        <pt x="125" y="125" on="1"/>
        <pt x="250" y="125" on="1"/>
        <pt x="250" y="250" on="1"/>
        <pt x="375" y="250" on="1"/>
        <pt x="375" y="375" on="1"/>
        <pt x="250" y="375" on="1"/>
        <pt x="250" y="500" on="1"/>
        <pt x="125" y="500" on="1"/>
        <pt x="125" y="625" on="1"/>
        <pt x="500" y="625" on="1"/>
        <pt x="500" y="375" on="1"/>
        <pt x="625" y="375" on="1"/>
      </contour>
    </TTGlyph>
    <TTGlyph name="bracketleft" xMin="125" yMin="0" xMax="500" yMax="625">
      <contour>
        <pt x="125" y="0" on="1"/>
        <pt x="125" y="625" on="1"/>
        <pt x="500" y="625" on="1"/>
        <pt x="500" y="500" on="1"/>
        <pt x="375" y="500" on="1"/>
        <pt x="375" y="125" on="1"/>
        <pt x="500" y="125" on="1"/>
        <pt x="500" y="0" on="1"/>
      </contour>
    </TTGlyph>
    <TTGlyph name="bracketright" xMin="125" yMin="0" xMax="500" yMax="625">
      <contour>
        <pt x="500" y="0" on="1"/>
        <pt x="125" y="0" on="1"/>
        <pt x="125" y="125" on="1"/>
        <pt x="250" y="125" on="1"/>
        <pt x="250" y="500" on="1"/>
        <pt x="125" y="500" on="1"/>
        <pt x="125" y="625" on="1"/>
        <pt x="500" y="625" on="1"/>
      </contour>
    </TTGlyph>
    <TTGlyph name="c" xMin="125" yMin="0" xMax="750" yMax="625">
      <contour>
        <pt x="250" y="0" on="1"/>
        <pt x="250" y="125" on="1"/>
        <pt x="125" y="125" on="1"/>
        <pt x="125" y="500" on="1"/>
        <pt x="250" y="500" on="1"/>
        <pt x="250" y="625" on="1"/>
        <pt x="625" y="625" on="1"/>
        <pt x="625" y="500" on="1"/>
        <pt x="750" y="500" on="1"/>
        <pt x="750" y="375" on="1"/>
        <pt x="500" y="375" on="1"/>
        <pt x="500" y="500" on="1"/>
        <pt x="375" y="500" on="1"/>
        <pt x="375" y="125" on="1"/>
        <pt x="500" y="125" on="1"/>
        <pt x="500" y="250" on="1"/>
        <pt x="750" y="250" on="1"/>
        <pt x="750" y="125" on="1"/>
        <pt x="625" y="125" on="1"/>
        <pt x="625" y="0" on="1"/>
      </contour>
    </TTGlyph>
    <TTGlyph name="colon" xMin="0" yMin="125" xMax="250" yMax="500">
      <contour>
        <pt x="0" y="250" on="1"/>
        <pt x="250" y="250" on="1"/>
        <pt x="250" y="125" on="1"/>
        <pt x="0" y="125" on="1"/>
      </contour>
      <contour>
        <pt x="0" y="500" on="1"/>
        <pt x="250" y="500" on="1"/>
        <pt x="250" y="375" on="1"/>
        <pt x="0" y="375" on="1"/>
      </contour>
    </TTGlyph>
    <TTGlyph name="comma" xMin="0" yMin="-125" xMax="375" yMax="125">
      <contour>
        <pt x="125" y="0" on="1"/>
        <pt x="125" y="125" on="1"/>
        <pt x="375" y="125" on="1"/>
        <pt x="375" y="0" on="1"/>
        <pt x="250" y="0" on="1"/>
        <pt x="250" y="-125" on="1"/>
        <pt x="0" y="-125" on="1"/>
        <pt x="0" y="0" on="1"/>
      </contour>
    </TTGlyph>
    <TTGlyph name="d" xMin="125" yMin="0" xMax="750" yMax="625">
      <contour>
        <pt x="125" y="0" on="1"/>
        <pt x="125" y="625" on="1"/>
        <pt x="625" y="625" on="1"/>
        <pt x="625" y="500" on="1"/>
        <pt x="750" y="500" on="1"/>
        <pt x="750" y="125" on="1"/>
        <pt x="625" y="125" on="1"/>
        <pt x="625" y="0" on="1"/>
      </contour>
      <contour>
        <pt x="500" y="500" on="1"/>
        <pt x="375" y="500" on="1"/>
        <pt x="375" y="125" on="1"/>
        <pt x="500" y="125" on="1"/>
      </contour>
    </TTGlyph>
    <TTGlyph name="dollar" xMin="125" yMin="-125" xMax="750" yMax="750">
      <contour>
        <pt x="125" y="0" on="1"/>
        <pt x="125" y="125" on="1"/>
        <pt x="500" y="125" on="1"/>
        <pt x="500" y="250" on="1"/>
        <pt x="250" y="250" on="1"/>
        <pt x="250" y="375" on="1"/>
        <pt x="125" y="375" on="1"/>
        <pt x="125" y="500" on="1"/>
        <pt x="250" y="500" on="1"/>
        <pt x="250" y="625" on="1"/>
        <pt x="375" y="625" on="1"/>
        <pt x="375" y="750" on="1"/>
        <pt x="625" y="750" on="1"/>
        <pt x="625" y="625" on="1"/>
        <pt x="750" y="625" on="1"/>
        <pt x="750" y="500" on="1"/>
        <pt x="375" y="500" on="1"/>
        <pt x="375" y="375" on="1"/>
        <pt x="625" y="375" on="1"/>
        <pt x="625" y="250" on="1"/>
        <pt x="750" y="250" on="1"/>
        <pt x="750" y="0" on="1"/>
        <pt x="500" y="0" on="1"/>
        <pt x="500" y="-125" on="1"/>
        <pt x="250" y="-125" on="1"/>
        <pt x="250" y="0" on="1"/>
      </contour>
    </TTGlyph>
    <TTGlyph name="e" xMin="125" yMin="0" xMax="625" yMax="625">
      <contour>
        <pt x="625" y="500" on="1"/>
        <pt x="375" y="500" on="1"/>
        <pt x="375" y="375" on="1"/>
        <pt x="625" y="375" on="1"/>
        <pt x="625" y="250" on="1"/>
        <pt x="375" y="250" on="1"/>
        <pt x="375" y="125" on="1"/>
        <pt x="625" y="125" on="1"/>
        <pt x="625" y="0" on="1"/>
        <pt x="125" y="0" on="1"/>
        <pt x="125" y="625" on="1"/>
        <pt x="625" y="625" on="1"/>
      </contour>
    </TTGlyph>
    <TTGlyph name="eight" xMin="125" yMin="0" xMax="750" yMax="625">
      <contour>
        <pt x="250" y="0" on="1"/>
        <pt x="250" y="125" on="1"/>
        <pt x="125" y="125" on="1"/>
        <pt x="125" y="250" on="1"/>
        <pt x="250" y="250" on="1"/>
        <pt x="250" y="375" on="1"/>
        <pt x="125" y="375" on="1"/>
        <pt x="125" y="500" on="1"/>
        <pt x="250" y="500" on="1"/>
        <pt x="250" y="625" on="1"/>
        <pt x="625" y="625" on="1"/>
        <pt x="625" y="500" on="1"/>
        <pt x="750" y="500" on="1"/>
        <pt x="750" y="375" on="1"/>
        <pt x="625" y="375" on="1"/>
        <pt x="625" y="250" on="1"/>
        <pt x="750" y="250" on="1"/>
        <pt x="750" y="125" on="1"/>
        <pt x="625" y="125" on="1"/>
        <pt x="625" y="0" on="1"/>
      </contour>
      <contour>
        <pt x="375" y="375" on="1"/>
        <pt x="500" y="375" on="1"/>
        <pt x="500" y="500" on="1"/>
        <pt x="375" y="500" on="1"/>
      </contour>
      <contour>
        <pt x="375" y="125" on="1"/>
        <pt x="500" y="125" on="1"/>
        <pt x="500" y="250" on="1"/>
        <pt x="375" y="250" on="1"/>
      </contour>
    </TTGlyph>
    <TTGlyph name="equal" xMin="125" yMin="125" xMax="625" yMax="500">
      <contour>
        <pt x="625" y="125" on="1"/>
        <pt x="125" y="125" on="1"/>
        <pt x="125" y="250" on="1"/>
        <pt x="625" y="250" on="1"/>
      </contour>
      <contour>
        <pt x="625" y="375" on="1"/>
        <pt x="125" y="375" on="1"/>
        <pt x="125" y="500" on="1"/>
        <pt x="625" y="500" on="1"/>
      </contour>
    </TTGlyph>
    <TTGlyph name="exclam" xMin="125" yMin="0" xMax="375" yMax="625">
      <contour>
        <pt x="125" y="250" on="1"/>
        <pt x="125" y="625" on="1"/>
        <pt x="375" y="625" on="1"/>
        <pt x="375" y="250" on="1"/>
      </contour>
      <contour>
        <pt x="125" y="125" on="1"/>
        <pt x="375" y="125" on="1"/>
        <pt x="375" y="0" on="1"/>
        <pt x="125" y="0" on="1"/>
      </contour>
    </TTGlyph>
    <TTGlyph name="f" xMin="125" yMin="0" xMax="625" yMax="625">
      <contour>
        <pt x="125" y="0" on="1"/>
        <pt x="125" y="625" on="1"/>
        <pt x="625" y="625" on="1"/>
        <pt x="625" y="500" on="1"/>
        <pt x="375" y="500" on="1"/>
        <pt x="375" y="375" on="1"/>
        <pt x="625" y="375" on="1"/>
        <pt x="625" y="250" on="1"/>
        <pt x="375" y="250" on="1"/>
        <pt x="375" y="0" on="1"/>
      </contour>
    </TTGlyph>
    <TTGlyph name="five" xMin="125" yMin="0" xMax="750" yMax="625">
      <contour>
        <pt x="125" y="0" on="1"/>
        <pt x="125" y="125" on="1"/>
        <pt x="500" y="125" on="1"/>
        <pt x="500" y="250" on="1"/>
        <pt x="125" y="250" on="1"/>
        <pt x="125" y="625" on="1"/>
        <pt x="750" y="625" on="1"/>
        <pt x="750" y="500" on="1"/>
        <pt x="375" y="500" on="1"/>
        <pt x="375" y="375" on="1"/>
        <pt x="625" y="375" on="1"/>
        <pt x="625" y="250" on="1"/>
        <pt x="750" y="250" on="1"/>
        <pt x="750" y="125" on="1"/>
        <pt x="625" y="125" on="1"/>
        <pt x="625" y="0" on="1"/>
      </contour>
    </TTGlyph>
    <TTGlyph name="four" xMin="125" yMin="0" xMax="750" yMax="625">
      <contour>
        <pt x="125" y="625" on="1"/>
        <pt x="125" y="125" on="1"/>
        <pt x="375" y="125" on="1"/>
        <pt x="375" y="0" on="1"/>
        <pt x="625" y="0" on="1"/>
        <pt x="625" y="125" on="1"/>
        <pt x="750" y="125" on="1"/>
        <pt x="750" y="250" on="1"/>
        <pt x="625" y="250" on="1"/>
        <pt x="625" y="625" on="1"/>
      </contour>
    </TTGlyph>
    <TTGlyph name="g" xMin="125" yMin="0" xMax="750" yMax="625">
      <contour>
        <pt x="250" y="0" on="1"/>
        <pt x="250" y="125" on="1"/>
        <pt x="125" y="125" on="1"/>
        <pt x="125" y="500" on="1"/>
        <pt x="250" y="500" on="1"/>
        <pt x="250" y="625" on="1"/>
        <pt x="750" y="625" on="1"/>
        <pt x="750" y="500" on="1"/>
        <pt x="375" y="500" on="1"/>
        <pt x="375" y="125" on="1"/>
        <pt x="500" y="125" on="1"/>
        <pt x="500" y="375" on="1"/>
        <pt x="750" y="375" on="1"/>
        <pt x="750" y="125" on="1"/>
        <pt x="625" y="125" on="1"/>
        <pt x="625" y="0" on="1"/>
      </contour>
    </TTGlyph>
    <TTGlyph name="grave" xMin="125" yMin="375" xMax="500" yMax="625">
      <contour>
        <pt x="250" y="375" on="1"/>
        <pt x="250" y="500" on="1"/>
        <pt x="125" y="500" on="1"/>
        <pt x="125" y="625" on="1"/>
        <pt x="375" y="625" on="1"/>
        <pt x="375" y="500" on="1"/>
        <pt x="500" y="500" on="1"/>
        <pt x="500" y="375" on="1"/>
      </contour>
    </TTGlyph>
    <TTGlyph name="greater" xMin="125" yMin="0" xMax="625" yMax="625">
      <contour>
        <pt x="625" y="250" on="1"/>
        <pt x="500" y="250" on="1"/>
        <pt x="500" y="125" on="1"/>
        <pt x="375" y="125" on="1"/>
        <pt x="375" y="0" on="1"/>
        <pt x="125" y="0" on="1"/>
        <pt x="125" y="125" on="1"/>
        <pt x="250" y="125" on="1"/>
        <pt x="250" y="250" on="1"/>
        <pt x="375" y="250" on="1"/>
        <pt x="375" y="375" on="1"/>
        <pt x="250" y="375" on="1"/>
        <pt x="250" y="500" on="1"/>
        <pt x="125" y="500" on="1"/>
        <pt x="125" y="625" on="1"/>
        <pt x="375" y="625" on="1"/>
        <pt x="375" y="500" on="1"/>
        <pt x="500" y="500" on="1"/>
        <pt x="500" y="375" on="1"/>
        <pt x="625" y="375" on="1"/>
      </contour>
    </TTGlyph>
    <TTGlyph name="h" xMin="125" yMin="0" xMax="750" yMax="625">
      <contour>
        <pt x="125" y="0" on="1"/>
        <pt x="125" y="625" on="1"/>
        <pt x="375" y="625" on="1"/>
        <pt x="375" y="375" on="1"/>
        <pt x="500" y="375" on="1"/>
        <pt x="500" y="625" on="1"/>
        <pt x="750" y="625" on="1"/>
        <pt x="750" y="0" on="1"/>
        <pt x="500" y="0" on="1"/>
        <pt x="500" y="250" on="1"/>
        <pt x="375" y="250" on="1"/>
        <pt x="375" y="0" on="1"/>
      </contour>
    </TTGlyph>
    <TTGlyph name="hyphen" xMin="125" yMin="250" xMax="625" yMax="375">
      <contour>
        <pt x="625" y="250" on="1"/>
        <pt x="125" y="250" on="1"/>
        <pt x="125" y="375" on="1"/>
        <pt x="625" y="375" on="1"/>
      </contour>
    </TTGlyph>
    <TTGlyph name="i" xMin="125" yMin="0" xMax="375" yMax="625">
      <contour>
        <pt x="125" y="0" on="1"/>
        <pt x="125" y="625" on="1"/>
        <pt x="375" y="625" on="1"/>
        <pt x="375" y="0" on="1"/>
      </contour>
    </TTGlyph>
    <TTGlyph name="j" xMin="125" yMin="0" xMax="750" yMax="625">
      <contour>
        <pt x="250" y="0" on="1"/>
        <pt x="250" y="125" on="1"/>
        <pt x="125" y="125" on="1"/>
        <pt x="125" y="250" on="1"/>
        <pt x="375" y="250" on="1"/>
        <pt x="375" y="125" on="1"/>
        <pt x="500" y="125" on="1"/>
        <pt x="500" y="625" on="1"/>
        <pt x="750" y="625" on="1"/>
        <pt x="750" y="125" on="1"/>
        <pt x="625" y="125" on="1"/>
        <pt x="625" y="0" on="1"/>
      </contour>
    </TTGlyph>
    <TTGlyph name="k" xMin="125" yMin="0" xMax="750" yMax="625">
      <contour>
        <pt x="125" y="0" on="1"/>
        <pt x="125" y="625" on="1"/>
        <pt x="375" y="625" on="1"/>
        <pt x="375" y="500" on="1"/>
        <pt x="500" y="500" on="1"/>
        <pt x="500" y="625" on="1"/>
        <pt x="750" y="625" on="1"/>
        <pt x="750" y="500" on="1"/>
        <pt x="625" y="500" on="1"/>
        <pt x="625" y="375" on="1"/>
        <pt x="500" y="375" on="1"/>
        <pt x="500" y="250" on="1"/>
        <pt x="625" y="250" on="1"/>
        <pt x="625" y="125" on="1"/>
        <pt x="750" y="125" on="1"/>
        <pt x="750" y="0" on="1"/>
        <pt x="500" y="0" on="1"/>
        <pt x="500" y="125" on="1"/>
        <pt x="375" y="125" on="1"/>
        <pt x="375" y="0" on="1"/>
      </contour>
    </TTGlyph>
    <TTGlyph name="l" xMin="125" yMin="0" xMax="625" yMax="625">
      <contour>
        <pt x="375" y="125" on="1"/>
        <pt x="625" y="125" on="1"/>
        <pt x="625" y="0" on="1"/>
        <pt x="125" y="0" on="1"/>
        <pt x="125" y="625" on="1"/>
        <pt x="375" y="625" on="1"/>
      </contour>
    </TTGlyph>
    <TTGlyph name="less" xMin="125" yMin="0" xMax="625" yMax="625">
      <contour>
        <pt x="375" y="0" on="1"/>
        <pt x="375" y="125" on="1"/>
        <pt x="250" y="125" on="1"/>
        <pt x="250" y="250" on="1"/>
        <pt x="125" y="250" on="1"/>
        <pt x="125" y="375" on="1"/>
        <pt x="250" y="375" on="1"/>
        <pt x="250" y="500" on="1"/>
        <pt x="375" y="500" on="1"/>
        <pt x="375" y="625" on="1"/>
        <pt x="625" y="625" on="1"/>
        <pt x="625" y="500" on="1"/>
        <pt x="500" y="500" on="1"/>
        <pt x="500" y="375" on="1"/>
        <pt x="375" y="375" on="1"/>
        <pt x="375" y="250" on="1"/>
        <pt x="500" y="250" on="1"/>
        <pt x="500" y="125" on="1"/>
        <pt x="625" y="125" on="1"/>
        <pt x="625" y="0" on="1"/>
      </contour>
    </TTGlyph>
    <TTGlyph name="m" xMin="125" yMin="0" xMax="875" yMax="625">
      <contour>
        <pt x="125" y="0" on="1"/>
        <pt x="125" y="625" on="1"/>
        <pt x="375" y="625" on="1"/>
        <pt x="375" y="500" on="1"/>
        <pt x="625" y="500" on="1"/>
        <pt x="625" y="625" on="1"/>
        <pt x="875" y="625" on="1"/>
        <pt x="875" y="0" on="1"/>
        <pt x="625" y="0" on="1"/>
        <pt x="625" y="250" on="1"/>
        <pt x="375" y="250" on="1"/>
        <pt x="375" y="0" on="1"/>
      </contour>
    </TTGlyph>
    <TTGlyph name="n" xMin="125" yMin="0" xMax="875" yMax="625">
      <contour>
        <pt x="125" y="0" on="1"/>
        <pt x="125" y="625" on="1"/>
        <pt x="375" y="625" on="1"/>
        <pt x="375" y="500" on="1"/>
        <pt x="500" y="500" on="1"/>
        <pt x="500" y="375" on="1"/>
        <pt x="625" y="375" on="1"/>
        <pt x="625" y="625" on="1"/>
        <pt x="875" y="625" on="1"/>
        <pt x="875" y="0" on="1"/>
        <pt x="625" y="0" on="1"/>
        <pt x="625" y="125" on="1"/>
        <pt x="500" y="125" on="1"/>
        <pt x="500" y="250" on="1"/>
        <pt x="375" y="250" on="1"/>
        <pt x="375" y="0" on="1"/>
      </contour>
    </TTGlyph>
    <TTGlyph name="nine" xMin="125" yMin="0" xMax="750" yMax="625">
      <contour>
        <pt x="250" y="0" on="1"/>
        <pt x="250" y="125" on="1"/>
        <pt x="500" y="125" on="1"/>
        <pt x="500" y="250" on="1"/>
        <pt x="250" y="250" on="1"/>
        <pt x="250" y="375" on="1"/>
        <pt x="125" y="375" on="1"/>
        <pt x="125" y="500" on="1"/>
        <pt x="250" y="500" on="1"/>
        <pt x="250" y="625" on="1"/>
        <pt x="625" y="625" on="1"/>
        <pt x="625" y="500" on="1"/>
        <pt x="750" y="500" on="1"/>
        <pt x="750" y="125" on="1"/>
        <pt x="625" y="125" on="1"/>
        <pt x="625" y="0" on="1"/>
      </contour>
      <contour>
        <pt x="375" y="375" on="1"/>
        <pt x="500" y="375" on="1"/>
        <pt x="500" y="500" on="1"/>
        <pt x="375" y="500" on="1"/>
      </contour>
    </TTGlyph>
    <TTGlyph name="numbersign" xMin="125" yMin="0" xMax="875" yMax="625">
      <contour>
        <pt x="250" y="0" on="1"/>
        <pt x="250" y="125" on="1"/>
        <pt x="125" y="125" on="1"/>
        <pt x="125" y="250" on="1"/>
        <pt x="250" y="250" on="1"/>
        <pt x="250" y="375" on="1"/>
        <pt x="125" y="375" on="1"/>
        <pt x="125" y="500" on="1"/>
        <pt x="250" y="500" on="1"/>
        <pt x="250" y="625" on="1"/>
        <pt x="750" y="625" on="1"/>
        <pt x="750" y="500" on="1"/>
        <pt x="875" y="500" on="1"/>
        <pt x="875" y="375" on="1"/>
        <pt x="750" y="375" on="1"/>
        <pt x="750" y="250" on="1"/>
        <pt x="875" y="250" on="1"/>
        <pt x="875" y="125" on="1"/>
        <pt x="750" y="125" on="1"/>
        <pt x="750" y="0" on="1"/>
      </contour>
    </TTGlyph>
    <TTGlyph name="o" xMin="125" yMin="0" xMax="750" yMax="625">
      <contour>
        <pt x="250" y="0" on="1"/>
        <pt x="250" y="125" on="1"/>
        <pt x="125" y="125" on="1"/>
        <pt x="125" y="500" on="1"/>
        <pt x="250" y="500" on="1"/>
        <pt x="250" y="625" on="1"/>
        <pt x="625" y="625" on="1"/>
        <pt x="625" y="500" on="1"/>
        <pt x="750" y="500" on="1"/>
        <pt x="750" y="125" on="1"/>
        <pt x="625" y="125" on="1"/>
        <pt x="625" y="0" on="1"/>
      </contour>
      <contour>
        <pt x="375" y="125" on="1"/>
        <pt x="500" y="125" on="1"/>
        <pt x="500" y="500" on="1"/>
        <pt x="375" y="500" on="1"/>
      </contour>
    </TTGlyph>
    <TTGlyph name="one" xMin="125" yMin="0" xMax="625" yMax="625">
      <contour>
        <pt x="250" y="500" on="1"/>
        <pt x="125" y="500" on="1"/>
        <pt x="125" y="625" on="1"/>
        <pt x="500" y="625" on="1"/>
        <pt x="500" y="125" on="1"/>
        <pt x="625" y="125" on="1"/>
        <pt x="625" y="0" on="1"/>
        <pt x="125" y="0" on="1"/>
        <pt x="125" y="125" on="1"/>
        <pt x="250" y="125" on="1"/>
      </contour>
    </TTGlyph>
    <TTGlyph name="p" xMin="125" yMin="0" xMax="750" yMax="625">
      <contour>
        <pt x="125" y="0" on="1"/>
        <pt x="125" y="625" on="1"/>
        <pt x="625" y="625" on="1"/>
        <pt x="625" y="500" on="1"/>
        <pt x="750" y="500" on="1"/>
        <pt x="750" y="375" on="1"/>
        <pt x="625" y="375" on="1"/>
        <pt x="625" y="250" on="1"/>
        <pt x="375" y="250" on="1"/>
        <pt x="375" y="0" on="1"/>
      </contour>
      <contour>
        <pt x="375" y="375" on="1"/>
        <pt x="500" y="375" on="1"/>
        <pt x="500" y="500" on="1"/>
        <pt x="375" y="500" on="1"/>
      </contour>
    </TTGlyph>
    <TTGlyph name="parenleft" xMin="125" yMin="0" xMax="500" yMax="625">
      <contour>
        <pt x="250" y="0" on="1"/>
        <pt x="250" y="125" on="1"/>
        <pt x="125" y="125" on="1"/>
        <pt x="125" y="500" on="1"/>
        <pt x="250" y="500" on="1"/>
        <pt x="250" y="625" on="1"/>
        <pt x="500" y="625" on="1"/>
        <pt x="500" y="500" on="1"/>
        <pt x="375" y="500" on="1"/>
        <pt x="375" y="125" on="1"/>
        <pt x="500" y="125" on="1"/>
        <pt x="500" y="0" on="1"/>
      </contour>
    </TTGlyph>
    <TTGlyph name="parenright" xMin="125" yMin="0" xMax="500" yMax="625">
      <contour>
        <pt x="500" y="125" on="1"/>
        <pt x="375" y="125" on="1"/>
        <pt x="375" y="0" on="1"/>
        <pt x="125" y="0" on="1"/>
        <pt x="125" y="125" on="1"/>
        <pt x="250" y="125" on="1"/>
        <pt x="250" y="500" on="1"/>
        <pt x="125" y="500" on="1"/>
        <pt x="125" y="625" on="1"/>
        <pt x="375" y="625" on="1"/>
        <pt x="375" y="500" on="1"/>
        <pt x="500" y="500" on="1"/>
      </contour>
    </TTGlyph>
    <TTGlyph name="percent" xMin="125" yMin="0" xMax="875" yMax="625">
      <contour>
        <pt x="250" y="0" on="1"/>
        <pt x="250" y="250" on="1"/>
        <pt x="375" y="250" on="1"/>
        <pt x="375" y="375" on="1"/>
        <pt x="125" y="375" on="1"/>
        <pt x="125" y="625" on="1"/>
        <pt x="750" y="625" on="1"/>
        <pt x="750" y="375" on="1"/>
        <pt x="625" y="375" on="1"/>
        <pt x="625" y="250" on="1"/>
        <pt x="875" y="250" on="1"/>
        <pt x="875" y="0" on="1"/>
      </contour>
    </TTGlyph>
    <TTGlyph name="period" xMin="0" yMin="0" xMax="250" yMax="125">
      <contour>
        <pt x="0" y="125" on="1"/>
        <pt x="250" y="125" on="1"/>
        <pt x="250" y="0" on="1"/>
        <pt x="0" y="0" on="1"/>
      </contour>
    </TTGlyph>
    <TTGlyph name="plus" xMin="125" yMin="0" xMax="875" yMax="625">
      <contour>
        <pt x="125" y="250" on="1"/>
        <pt x="375" y="250" on="1"/>
        <pt x="375" y="0" on="1"/>
        <pt x="625" y="0" on="1"/>
        <pt x="625" y="250" on="1"/>
        <pt x="875" y="250" on="1"/>
        <pt x="875" y="375" on="1"/>
        <pt x="625" y="375" on="1"/>
        <pt x="625" y="625" on="1"/>
        <pt x="375" y="625" on="1"/>
        <pt x="375" y="375" on="1"/>
        <pt x="125" y="375" on="1"/>
      </contour>
    </TTGlyph>
    <TTGlyph name="q" xMin="125" yMin="-125" xMax="750" yMax="625">
      <contour>
        <pt x="250" y="0" on="1"/>
        <pt x="250" y="125" on="1"/>
        <pt x="125" y="125" on="1"/>
        <pt x="125" y="500" on="1"/>
        <pt x="250" y="500" on="1"/>
        <pt x="250" y="625" on="1"/>
        <pt x="625" y="625" on="1"/>
        <pt x="625" y="500" on="1"/>
        <pt x="750" y="500" on="1"/>
        <pt x="750" y="125" on="1"/>
        <pt x="625" y="125" on="1"/>
        <pt x="625" y="0" on="1"/>
        <pt x="750" y="0" on="1"/>
        <pt x="750" y="-125" on="1"/>
        <pt x="500" y="-125" on="1"/>
        <pt x="500" y="0" on="1"/>
      </contour>
      <contour>
        <pt x="375" y="125" on="1"/>
        <pt x="500" y="125" on="1"/>
        <pt x="500" y="500" on="1"/>
        <pt x="375" y="500" on="1"/>
      </contour>
    </TTGlyph>
    <TTGlyph name="question" xMin="125" yMin="0" xMax="750" yMax="625">
      <contour>
        <pt x="250" y="125" on="1"/>
        <pt x="500" y="125" on="1"/>
        <pt x="500" y="0" on="1"/>
        <pt x="250" y="0" on="1"/>
      </contour>
      <contour>
        <pt x="250" y="250" on="1"/>
        <pt x="250" y="375" on="1"/>
        <pt x="500" y="375" on="1"/>
        <pt x="500" y="500" on="1"/>
        <pt x="125" y="500" on="1"/>
        <pt x="125" y="625" on="1"/>
        <pt x="625" y="625" on="1"/>
        <pt x="625" y="500" on="1"/>
        <pt x="750" y="500" on="1"/>
        <pt x="750" y="375" on="1"/>
        <pt x="625" y="375" on="1"/>
        <pt x="625" y="250" on="1"/>
      </contour>
    </TTGlyph>
    <TTGlyph name="quotedbl" xMin="125" yMin="375" xMax="625" yMax="625">
      <contour>
        <pt x="625" y="375" on="1"/>
        <pt x="125" y="375" on="1"/>
        <pt x="125" y="625" on="1"/>
        <pt x="625" y="625" on="1"/>
      </contour>
    </TTGlyph>
    <TTGlyph name="quotesingle" xMin="125" yMin="375" xMax="375" yMax="625">
      <contour>
        <pt x="375" y="375" on="1"/>
        <pt x="125" y="375" on="1"/>
        <pt x="125" y="625" on="1"/>
        <pt x="375" y="625" on="1"/>
      </contour>
    </TTGlyph>
    <TTGlyph name="r" xMin="125" yMin="0" xMax="750" yMax="625">
      <contour>
        <pt x="125" y="0" on="1"/>
        <pt x="125" y="625" on="1"/>
        <pt x="625" y="625" on="1"/>
        <pt x="625" y="500" on="1"/>
        <pt x="750" y="500" on="1"/>
        <pt x="750" y="375" on="1"/>
        <pt x="625" y="375" on="1"/>
        <pt x="625" y="125" on="1"/>
        <pt x="750" y="125" on="1"/>
        <pt x="750" y="0" on="1"/>
        <pt x="500" y="0" on="1"/>
        <pt x="500" y="125" on="1"/>
        <pt x="375" y="125" on="1"/>
        <pt x="375" y="0" on="1"/>
      </contour>
      <contour>
        <pt x="375" y="375" on="1"/>
        <pt x="500" y="375" on="1"/>
        <pt x="500" y="500" on="1"/>
        <pt x="375" y="500" on="1"/>
      </contour>
    </TTGlyph>
    <TTGlyph name="s" xMin="125" yMin="0" xMax="750" yMax="625">
      <contour>
        <pt x="125" y="0" on="1"/>
        <pt x="125" y="125" on="1"/>
        <pt x="500" y="125" on="1"/>
        <pt x="500" y="250" on="1"/>
        <pt x="250" y="250" on="1"/>
        <pt x="250" y="375" on="1"/>
        <pt x="125" y="375" on="1"/>
        <pt x="125" y="500" on="1"/>
        <pt x="250" y="500" on="1"/>
        <pt x="250" y="625" on="1"/>
        <pt x="750" y="625" on="1"/>
        <pt x="750" y="500" on="1"/>
        <pt x="375" y="500" on="1"/>
        <pt x="375" y="375" on="1"/>
        <pt x="625" y="375" on="1"/>
        <pt x="625" y="250" on="1"/>
        <pt x="750" y="250" on="1"/>
        <pt x="750" y="125" on="1"/>
        <pt x="625" y="125" on="1"/>
        <pt x="625" y="0" on="1"/>
      </contour>
    </TTGlyph>
    <TTGlyph name="semicolon" xMin="0" yMin="0" xMax="375" yMax="500">
      <contour>
        <pt x="125" y="500" on="1"/>
        <pt x="375" y="500" on="1"/>
        <pt x="375" y="375" on="1"/>
        <pt x="125" y="375" on="1"/>
      </contour>
      <contour>
        <pt x="125" y="125" on="1"/>
        <pt x="125" y="250" on="1"/>
        <pt x="375" y="250" on="1"/>
        <pt x="375" y="125" on="1"/>
        <pt x="250" y="125" on="1"/>
        <pt x="250" y="0" on="1"/>
        <pt x="0" y="0" on="1"/>
        <pt x="0" y="125" on="1"/>
      </contour>
    </TTGlyph>
    <TTGlyph name="seven" xMin="125" yMin="0" xMax="750" yMax="625">
      <contour>
        <pt x="250" y="0" on="1"/>
        <pt x="250" y="250" on="1"/>
        <pt x="375" y="250" on="1"/>
        <pt x="375" y="375" on="1"/>
        <pt x="500" y="375" on="1"/>
        <pt x="500" y="500" on="1"/>
        <pt x="125" y="500" on="1"/>
        <pt x="125" y="625" on="1"/>
        <pt x="750" y="625" on="1"/>
        <pt x="750" y="375" on="1"/>
        <pt x="625" y="375" on="1"/>
        <pt x="625" y="250" on="1"/>
        <pt x="500" y="250" on="1"/>
        <pt x="500" y="0" on="1"/>
      </contour>
    </TTGlyph>
    <TTGlyph name="six" xMin="125" yMin="0" xMax="750" yMax="625">
      <contour>
        <pt x="250" y="0" on="1"/>
        <pt x="250" y="125" on="1"/>
        <pt x="125" y="125" on="1"/>
        <pt x="125" y="500" on="1"/>
        <pt x="250" y="500" on="1"/>
        <pt x="250" y="625" on="1"/>
        <pt x="625" y="625" on="1"/>
        <pt x="625" y="500" on="1"/>
        <pt x="375" y="500" on="1"/>
        <pt x="375" y="375" on="1"/>
        <pt x="625" y="375" on="1"/>
        <pt x="625" y="250" on="1"/>
        <pt x="750" y="250" on="1"/>
        <pt x="750" y="125" on="1"/>
        <pt x="625" y="125" on="1"/>
        <pt x="625" y="0" on="1"/>
      </contour>
      <contour>
        <pt x="375" y="125" on="1"/>
        <pt x="500" y="125" on="1"/>
        <pt x="500" y="250" on="1"/>
        <pt x="375" y="250" on="1"/>
      </contour>
    </TTGlyph>
    <TTGlyph name="slash" xMin="125" yMin="0" xMax="625" yMax="625">
      <contour>
        <pt x="125" y="0" on="1"/>
        <pt x="125" y="250" on="1"/>
        <pt x="250" y="250" on="1"/>
        <pt x="250" y="375" on="1"/>
        <pt x="375" y="375" on="1"/>
        <pt x="375" y="625" on="1"/>
        <pt x="625" y="625" on="1"/>
        <pt x="625" y="375" on="1"/>
        <pt x="500" y="375" on="1"/>
        <pt x="500" y="250" on="1"/>
        <pt x="375" y="250" on="1"/>
        <pt x="375" y="0" on="1"/>
      </contour>
    </TTGlyph>
    <TTGlyph name="t" xMin="125" yMin="0" xMax="625" yMax="625">
      <contour>
        <pt x="250" y="0" on="1"/>
        <pt x="250" y="500" on="1"/>
        <pt x="125" y="500" on="1"/>
        <pt x="125" y="625" on="1"/>
        <pt x="625" y="625" on="1"/>
        <pt x="625" y="500" on="1"/>
        <pt x="500" y="500" on="1"/>
        <pt x="500" y="0" on="1"/>
      </contour>
    </TTGlyph>
    <TTGlyph name="three" xMin="125" yMin="0" xMax="750" yMax="625">
      <contour>
        <pt x="125" y="0" on="1"/>
        <pt x="125" y="125" on="1"/>
        <pt x="500" y="125" on="1"/>
        <pt x="500" y="250" on="1"/>
        <pt x="250" y="250" on="1"/>
        <pt x="250" y="375" on="1"/>
        <pt x="500" y="375" on="1"/>
        <pt x="500" y="500" on="1"/>
        <pt x="125" y="500" on="1"/>
        <pt x="125" y="625" on="1"/>
        <pt x="625" y="625" on="1"/>
        <pt x="625" y="500" on="1"/>
        <pt x="750" y="500" on="1"/>
        <pt x="750" y="375" on="1"/>
        <pt x="625" y="375" on="1"/>
        <pt x="625" y="250" on="1"/>
        <pt x="750" y="250" on="1"/>
        <pt x="750" y="125" on="1"/>
        <pt x="625" y="125" on="1"/>
        <pt x="625" y="0" on="1"/>
      </contour>
    </TTGlyph>
    <TTGlyph name="two" xMin="125" yMin="0" xMax="750" yMax="625">
      <contour>
        <pt x="125" y="0" on="1"/>
        <pt x="125" y="250" on="1"/>
        <pt x="250" y="250" on="1"/>
        <pt x="250" y="375" on="1"/>
        <pt x="500" y="375" on="1"/>
        <pt x="500" y="500" on="1"/>
        <pt x="125" y="500" on="1"/>
        <pt x="125" y="625" on="1"/>
        <pt x="625" y="625" on="1"/>
        <pt x="625" y="500" on="1"/>
        <pt x="750" y="500" on="1"/>
        <pt x="750" y="375" on="1"/>
        <pt x="625" y="375" on="1"/>
        <pt x="625" y="250" on="1"/>
        <pt x="375" y="250" on="1"/>
        <pt x="375" y="125" on="1"/>
        <pt x="750" y="125" on="1"/>
        <pt x="750" y="0" on="1"/>
      </contour>
    </TTGlyph>
    <TTGlyph name="u" xMin="125" yMin="0" xMax="750" yMax="625">
      <contour>
        <pt x="250" y="0" on="1"/>
        <pt x="250" y="125" on="1"/>
        <pt x="125" y="125" on="1"/>
        <pt x="125" y="625" on="1"/>
        <pt x="375" y="625" on="1"/>
        <pt x="375" y="125" on="1"/>
        <pt x="500" y="125" on="1"/>
        <pt x="500" y="625" on="1"/>
        <pt x="750" y="625" on="1"/>
        <pt x="750" y="125" on="1"/>
        <pt x="625" y="125" on="1"/>
        <pt x="625" y="0" on="1"/>
      </contour>
    </TTGlyph>
    <TTGlyph name="underscore" xMin="125" yMin="-125" xMax="750" yMax="0">
      <contour>
        <pt x="750" y="-125" on="1"/>
        <pt x="125" y="-125" on="1"/>
        <pt x="125" y="0" on="1"/>
        <pt x="750" y="0" on="1"/>
      </contour>
    </TTGlyph>
    <TTGlyph name="v" xMin="125" yMin="0" xMax="875" yMax="625">
      <contour>
        <pt x="375" y="0" on="1"/>
        <pt x="375" y="125" on="1"/>
        <pt x="250" y="125" on="1"/>
        <pt x="250" y="375" on="1"/>
        <pt x="125" y="375" on="1"/>
        <pt x="125" y="625" on="1"/>
        <pt x="375" y="625" on="1"/>
        <pt x="375" y="375" on="1"/>
        <pt x="625" y="375" on="1"/>
        <pt x="625" y="625" on="1"/>
        <pt x="875" y="625" on="1"/>
        <pt x="875" y="375" on="1"/>
        <pt x="750" y="375" on="1"/>
        <pt x="750" y="125" on="1"/>
        <pt x="625" y="125" on="1"/>
        <pt x="625" y="0" on="1"/>
      </contour>
    </TTGlyph>
    <TTGlyph name="w" xMin="125" yMin="0" xMax="875" yMax="625">
      <contour>
        <pt x="250" y="0" on="1"/>
        <pt x="250" y="125" on="1"/>
        <pt x="125" y="125" on="1"/>
        <pt x="125" y="625" on="1"/>
        <pt x="375" y="625" on="1"/>
        <pt x="375" y="500" on="1"/>
        <pt x="625" y="500" on="1"/>
        <pt x="625" y="625" on="1"/>
        <pt x="875" y="625" on="1"/>
        <pt x="875" y="125" on="1"/>
        <pt x="750" y="125" on="1"/>
        <pt x="750" y="0" on="1"/>
      </contour>
    </TTGlyph>
    <TTGlyph name="x" xMin="125" yMin="0" xMax="875" yMax="625">
      <contour>
        <pt x="125" y="0" on="1"/>
        <pt x="125" y="125" on="1"/>
        <pt x="250" y="125" on="1"/>
        <pt x="250" y="250" on="1"/>
        <pt x="375" y="250" on="1"/>
        <pt x="375" y="375" on="1"/>
        <pt x="250" y="375" on="1"/>
        <pt x="250" y="500" on="1"/>
        <pt x="125" y="500" on="1"/>
        <pt x="125" y="625" on="1"/>
        <pt x="375" y="625" on="1"/>
        <pt x="375" y="500" on="1"/>
        <pt x="625" y="500" on="1"/>
        <pt x="625" y="625" on="1"/>
        <pt x="875" y="625" on="1"/>
        <pt x="875" y="500" on="1"/>
        <pt x="750" y="500" on="1"/>
        <pt x="750" y="375" on="1"/>
        <pt x="625" y="375" on="1"/>
        <pt x="625" y="250" on="1"/>
        <pt x="750" y="250" on="1"/>
        <pt x="750" y="125" on="1"/>
        <pt x="875" y="125" on="1"/>
        <pt x="875" y="0" on="1"/>
        <pt x="625" y="0" on="1"/>
        <pt x="625" y="125" on="1"/>
        <pt x="375" y="125" on="1"/>
        <pt x="375" y="0" on="1"/>
      </contour>
    </TTGlyph>
    <TTGlyph name="y" xMin="125" yMin="0" xMax="875" yMax="625">
      <contour>
        <pt x="375" y="0" on="1"/>
        <pt x="375" y="375" on="1"/>
        <pt x="250" y="375" on="1"/>
        <pt x="250" y="500" on="1"/>
        <pt x="125" y="500" on="1"/>
        <pt x="125" y="625" on="1"/>
        <pt x="375" y="625" on="1"/>
        <pt x="375" y="500" on="1"/>
        <pt x="625" y="500" on="1"/>
        <pt x="625" y="625" on="1"/>
        <pt x="875" y="625" on="1"/>
        <pt x="875" y="500" on="1"/>
        <pt x="750" y="500" on="1"/>
        <pt x="750" y="375" on="1"/>
        <pt x="625" y="375" on="1"/>
        <pt x="625" y="0" on="1"/>
      </contour>
    </TTGlyph>
    <TTGlyph name="z" xMin="125" yMin="0" xMax="625" yMax="625">
      <contour>
        <pt x="125" y="0" on="1"/>
        <pt x="125" y="250" on="1"/>
        <pt x="250" y="250" on="1"/>
        <pt x="250" y="375" on="1"/>
        <pt x="375" y="375" on="1"/>
        <pt x="375" y="500" on="1"/>
        <pt x="125" y="500" on="1"/>
        <pt x="125" y="625" on="1"/>
        <pt x="625" y="625" on="1"/>
        <pt x="625" y="375" on="1"/>
        <pt x="500" y="375" on="1"/>
        <pt x="500" y="250" on="1"/>
        <pt x="375" y="250" on="1"/>
        <pt x="375" y="125" on="1"/>
        <pt x="625" y="125" on="1"/>
        <pt x="625" y="0" on="1"/>
      </contour>
    </TTGlyph>
    <TTGlyph name="zero" xMin="125" yMin="0" xMax="750" yMax="625">
      <contour>
        <pt x="250" y="0" on="1"/>
        <pt x="250" y="125" on="1"/>
        <pt x="125" y="125" on="1"/>
        <pt x="125" y="500" on="1"/>
        <pt x="250" y="500" on="1"/>
        <pt x="250" y="625" on="1"/>
        <pt x="625" y="625" on="1"/>
        <pt x="625" y="500" on="1"/>
        <pt x="750" y="500" on="1"/>
        <pt x="750" y="125" on="1"/>
        <pt x="625" y="125" on="1"/>
        <pt x="625" y="0" on="1"/>
      </contour>
      <contour>
        <pt x="375" y="125" on="1"/>
        <pt x="500" y="125" on="1"/>
        <pt x="500" y="500" on="1"/>
        <pt x="375" y="500" on="1"/>
      </contour>
    </TTGlyph>
</ttFont>
